<?xml version="1.0" encoding="utf-8"?><svg xmlns="http://www.w3.org/2000/svg" xmlns:xlink="http://www.w3.org/1999/xlink"><symbol viewBox="0 0 46.838 43.321" id="icon1" xmlns="http://www.w3.org/2000/svg"><path d="M0 3.709v22.875c0 2.995 2.451 5.446 5.446 5.446h11.697l.865-2.122.207-.51.389-.389 8.798-8.798-3.11-3.001 8.175-8.471a5.143 5.143 0 0 1 3.72-1.582 5.158 5.158 0 0 1 3.581 1.444 7.065 7.065 0 0 1 2.713-.536V3.709H0zm15.794 14.978H5.991v-2.723h9.803v2.723zm8.169-6.536H5.99V9.428h17.973v2.723z"/><path d="M45.561 12.065a4.34 4.34 0 0 0-3.081-1.275 4.348 4.348 0 0 0-3.074 1.269l-1.511-1.479a2.46 2.46 0 0 0-1.723-.701 2.455 2.455 0 0 0-1.741.721l-6.571 6.57 1.925 1.924 6.389-6.389 1.306 1.28-16.951 16.95-4.236 10.397 10.447-4.285 18.814-18.813.007-.008a4.355 4.355 0 0 0 0-6.161m-1.901 4.21l-.032.033-2.689 2.689-2.31-2.312 2.696-2.695a1.619 1.619 0 0 1 1.154-.479 1.635 1.635 0 0 1 1.181 2.764"/></symbol><symbol viewBox="0 0 46.838 43.321" id="icon2" xmlns="http://www.w3.org/2000/svg"><path d="M15.633 18.527h-2.621a.902.902 0 0 0-.907.906v2.621c0 .504.403.907.907.907h2.621a.903.903 0 0 0 .907-.907v-2.621a.902.902 0 0 0-.907-.906m6.048 11.793H19.06a.902.902 0 0 0-.907.906v2.621c0 .504.403.907.907.907h2.621a.903.903 0 0 0 .907-.907v-2.621a.902.902 0 0 0-.907-.906m9.827-22.125h2.016c.806 0 1.462-.655 1.462-1.461V2.298c0-.807-.656-1.462-1.462-1.462h-2.016c-.807 0-1.461.655-1.461 1.462v4.436c0 .806.654 1.461 1.461 1.461M15.633 24.423h-2.621a.902.902 0 0 0-.907.906v2.621c0 .504.403.907.907.907h2.621a.903.903 0 0 0 .907-.907v-2.62c0-.454-.403-.907-.907-.907m6.048.05H19.06a.903.903 0 0 0-.907.907v2.621c0 .504.403.907.907.907h2.621a.903.903 0 0 0 .907-.907V25.38a.903.903 0 0 0-.907-.907M13.314 8.195h2.016c.806 0 1.462-.655 1.462-1.461V2.298c0-.807-.656-1.462-1.462-1.462h-2.016c-.806 0-1.461.655-1.461 1.462v4.436a1.463 1.463 0 0 0 1.461 1.461m20.513 16.228h-2.621a.902.902 0 0 0-.907.906v2.621c0 .504.403.907.907.907h2.621c.454.05.907-.403.907-.907v-2.62a.904.904 0 0 0-.907-.907m-12.146-5.846H19.06a.903.903 0 0 0-.907.907v2.621c0 .504.403.907.907.907h2.621a.903.903 0 0 0 .907-.907v-2.621a.903.903 0 0 0-.907-.907m6.048 0h-2.621a.903.903 0 0 0-.907.907v2.621c0 .504.403.907.907.907h2.621a.903.903 0 0 0 .907-.907v-2.621a.904.904 0 0 0-.907-.907"/><path d="M41.235 4.869H36.85v1.915a3.27 3.27 0 0 1-3.276 3.275h-2.016a3.27 3.27 0 0 1-3.276-3.275V4.818h-9.676v1.915a3.27 3.27 0 0 1-3.276 3.276h-2.016a3.27 3.27 0 0 1-3.276-3.276V4.818H5.603a3.163 3.163 0 0 0-3.175 3.176v30.793c0 1.813 1.412 3.225 3.175 3.225h35.632c1.764 0 3.175-1.411 3.175-3.225V8.043a3.162 3.162 0 0 0-3.175-3.174m-.454 21.973v11.541H6.057v-23.99h34.724v12.449z"/><path d="M27.729 24.473h-2.621a.903.903 0 0 0-.907.907v2.621c0 .504.403.907.907.907h2.621a.903.903 0 0 0 .907-.907V25.38a.904.904 0 0 0-.907-.907m0 5.847h-2.621a.902.902 0 0 0-.907.906v2.621c0 .504.403.907.907.907h2.621a.903.903 0 0 0 .907-.907v-2.621a.903.903 0 0 0-.907-.906"/></symbol><symbol viewBox="0 0 46.838 43.321" id="icon3" xmlns="http://www.w3.org/2000/svg"><path d="M4.013 29.376h39.479V6.521H4.013v22.855zm15.583-17.661l10.39 6.233-10.39 6.233V11.715zm-8.831 20.779a2.59 2.59 0 0 0-2.369 1.559H6.09a1.039 1.039 0 1 0 0 2.077h2.306a2.59 2.59 0 0 0 2.369 1.558 2.59 2.59 0 0 0 2.37-1.558h28.277a1.04 1.04 0 1 0 0-2.077H13.135a2.588 2.588 0 0 0-2.37-1.559"/></symbol><symbol viewBox="0 0 218.585 35.539" id="logo" xmlns="http://www.w3.org/2000/svg"><path d="M9.515.018v2.221L5.96 5.544a7.622 7.622 0 0 1 1.561.346c.475.163.881.39 1.219.681.337.292.603.657.795 1.098.193.441.29.973.29 1.596 0 .8-.131 1.485-.393 2.054a3.845 3.845 0 0 1-1.106 1.423c-.475.379-1.054.658-1.736.833-.682.177-1.443.265-2.284.265a16.29 16.29 0 0 1-2.387-.156 12.843 12.843 0 0 1-1.912-.425l.29-2.473c.579.147 1.174.275 1.788.382.613.107 1.243.161 1.891.161.662 0 1.202-.138 1.623-.414.42-.276.63-.784.63-1.524 0-.646-.2-1.1-.6-1.363-.4-.262-.964-.394-1.694-.394H2.22V5.645l3.224-3.177H.484V.018h9.031zm8.122 0c1.005 0 1.905.129 2.697.388.792.258 1.46.652 2.005 1.182.544.53.961 1.21 1.25 2.039.29.829.434 1.814.434 2.956 0 1.02-.1 1.971-.299 2.854-.2.883-.562 1.651-1.085 2.304-.524.652-1.25 1.166-2.181 1.539-.93.374-2.125.561-3.585.561-.661 0-1.371-.042-2.128-.125a28.304 28.304 0 0 1-2.48-.394V.018h5.372zm-1.819 11.231c.22.027.423.047.609.06.186.014.375.02.568.02.675 0 1.229-.101 1.664-.303a2.41 2.41 0 0 0 1.033-.898c.255-.396.431-.884.527-1.463a12.46 12.46 0 0 0 .145-2.019c0-.781-.059-1.437-.176-1.968-.117-.531-.293-.962-.527-1.292a1.989 1.989 0 0 0-.858-.707 3.007 3.007 0 0 0-1.167-.212h-1.818v8.782zM35.378.054v1.68h-6.251v4.38h5.635v1.68h-5.635v3.062c0 .624.173 1.056.521 1.297.347.241.818.362 1.414.362h4.593v1.68h-4.678c-1.276 0-2.275-.266-2.999-.797-.723-.532-1.084-1.386-1.084-2.563V.054h8.484zm1.702 0h2.573l3.424 5.252L46.649.054h2.382l-4.785 6.911 4.848 7.23h-2.615l-3.615-5.529-3.7 5.529h-2.36l4.891-7.166L37.08.054zm18.691 0c.893 0 1.676.074 2.35.223.673.149 1.237.401 1.69.755.454.354.794.815 1.021 1.382s.34 1.276.34 2.126c0 .836-.121 1.549-.361 2.137a3.42 3.42 0 0 1-1.053 1.425c-.461.361-1.014.624-1.659.787-.645.164-1.372.245-2.179.245-.752 0-1.581-.078-2.488-.234v5.295H51.2V.054h4.571zm-2.339 7.187c.794.142 1.545.213 2.254.213 1.191 0 2.027-.241 2.509-.723.482-.481.723-1.212.723-2.19 0-.539-.061-.989-.181-1.351a1.868 1.868 0 0 0-.563-.861c-.255-.213-.582-.365-.979-.458a6.388 6.388 0 0 0-1.424-.138h-2.339v5.508zM72.633.054v1.68h-6.251v4.38h5.635v1.68h-5.635v3.062c0 .624.173 1.056.521 1.297.347.241.818.362 1.414.362h4.593v1.68h-4.678c-1.276 0-2.275-.266-2.999-.797-.723-.532-1.084-1.386-1.084-2.563V.054h8.484zm8.038 0c.893 0 1.676.071 2.35.212.673.142 1.237.383 1.69.723s.794.791 1.021 1.35c.227.56.34 1.258.34 2.094 0 .567-.071 1.06-.212 1.478a3.441 3.441 0 0 1-.574 1.073c-.241.298-.528.546-.861.745s-.698.361-1.095.489c.524.199.929.497 1.212.893.283.397.545.929.787 1.595l1.254 3.488h-2.318l-1.105-3.022a8.995 8.995 0 0 0-.404-.933 3.062 3.062 0 0 0-.51-.729 2.044 2.044 0 0 0-.723-.482c-.284-.114-.624-.171-1.021-.171H79.45c-.362 0-.734-.045-1.117-.136v5.474h-2.232V.054h4.57zm-2.339 6.975c.411.071.805.121 1.18.149s.734.042 1.074.042c1.191 0 2.027-.227 2.509-.681.482-.454.723-1.155.723-2.105 0-.539-.061-.981-.181-1.329a1.797 1.797 0 0 0-.563-.829c-.255-.206-.582-.347-.979-.425s-.872-.117-1.424-.117h-2.339v5.295zM91.707.054v14.141h-2.232V.054h2.232zm12.439 0v1.68h-6.251v4.38h5.635v1.68h-5.635v3.062c0 .624.173 1.056.521 1.297.347.241.818.362 1.414.362h4.593v1.68h-4.678c-1.276 0-2.275-.266-2.999-.797-.723-.532-1.084-1.386-1.084-2.563V.054h8.484zm5.252 0l7.719 8.271V.054h2.169v14.141h-2.169v-3.189l-7.357-7.783v10.972h-2.147V.054h1.785zm22.732 2.041a15.65 15.65 0 0 0-1.669-.276 15.194 15.194 0 0 0-1.733-.106c-.667 0-1.244.085-1.733.256a2.652 2.652 0 0 0-1.223.871c-.327.41-.571.96-.734 1.65-.163.69-.245 1.555-.245 2.593 0 1.08.085 1.971.255 2.675.17.704.421 1.26.755 1.67.333.41.751.697 1.254.861.503.164 1.088.246 1.754.246.539 0 1.116-.044 1.733-.131a31.409 31.409 0 0 0 1.733-.294l.17 1.66a11.65 11.65 0 0 1-1.829.34c-.652.071-1.276.106-1.872.106-.978 0-1.857-.117-2.637-.352s-1.442-.627-1.988-1.179c-.546-.551-.96-1.282-1.244-2.191-.284-.91-.425-2.04-.425-3.391s.142-2.481.425-3.391c.283-.91.698-1.637 1.244-2.181a4.584 4.584 0 0 1 2.01-1.158c.793-.227 1.694-.341 2.701-.341.609 0 1.226.036 1.85.106.624.071 1.191.156 1.701.255l-.253 1.702zM143.74.054v1.68h-6.251v4.38h5.635v1.68h-5.635v3.062c0 .624.173 1.056.521 1.297.347.241.818.362 1.414.362h4.593v1.68h-4.678c-1.276 0-2.275-.266-2.999-.797-.723-.532-1.084-1.386-1.084-2.563V.054h8.484zM158.946.094v2.513h-5.899v3.705h5.132v2.513h-5.132v5.43h-3.663V.094h9.562zm13.927 7.102c0 2.443-.54 4.234-1.619 5.373-1.079 1.14-2.712 1.709-4.898 1.709-2.201 0-3.837-.569-4.909-1.709-1.072-1.139-1.607-2.93-1.607-5.373 0-2.47.536-4.275 1.607-5.414s2.708-1.708 4.909-1.708 3.836.569 4.909 1.708c1.072 1.139 1.608 2.944 1.608 5.414zm-3.833-.021c0-.849-.053-1.563-.16-2.141-.106-.579-.273-1.047-.5-1.404s-.508-.609-.841-.758a2.842 2.842 0 0 0-1.161-.222c-.455 0-.852.074-1.193.222-.34.148-.625.401-.852.758-.228.357-.394.825-.5 1.404-.106.579-.16 1.292-.16 2.141 0 .848.053 1.563.16 2.142.106.579.273 1.047.5 1.404.227.357.511.609.852.757.341.148.738.222 1.193.222.44 0 .827-.074 1.161-.222.333-.148.614-.4.841-.757s.394-.825.5-1.404c.106-.579.16-1.294.16-2.142zM179.772.094c.965 0 1.81.075 2.534.224s1.328.404 1.81.766.845.836 1.086 1.425c.241.588.362 1.315.362 2.18 0 .539-.071.996-.213 1.372a3.038 3.038 0 0 1-1.341 1.596 6.666 6.666 0 0 1-.852.415c.539.214.99.509 1.352.886.362.377.649.942.862 1.695l1.044 3.605h-3.812l-.81-2.802c-.099-.356-.206-.67-.319-.941s-.255-.492-.426-.663-.38-.299-.628-.385a2.815 2.815 0 0 0-.905-.128h-.5c-.178 0-.33-.01-.458-.032v4.951h-3.663V.094h4.877zm-1.213 6.656c.199.035.401.052.607.052h.564c.781 0 1.345-.159 1.693-.476.348-.318.522-.865.522-1.643 0-.424-.042-.773-.128-1.048-.085-.276-.22-.488-.405-.636a1.603 1.603 0 0 0-.681-.307 4.771 4.771 0 0 0-.958-.084h-1.214V6.75zm12.67-6.656v9.501c0 .764.213 1.306.639 1.625.426.319 1.015.479 1.767.479a10.234 10.234 0 0 0 2.172-.227V.094h3.663v13.289c-.667.17-1.512.362-2.534.575-1.022.213-2.165.319-3.428.319-1.107 0-2.041-.108-2.8-.324-.76-.216-1.374-.53-1.842-.941a3.485 3.485 0 0 1-1.012-1.527c-.206-.606-.309-1.3-.309-2.081V.094h3.684zm17.952 9.903l-3.173-4.749v9.008h-3.663V.094h3.642l4.493 6.645 4.472-6.645h3.642v14.162h-3.663V5.248l-3.173 4.749h-2.577zM6.066 20.152c.969 0 1.819.077 2.55.231.73.154 1.342.415 1.834.785.492.369.861.857 1.108 1.465.246.607.369 1.365.369 2.272 0 .615-.077 1.15-.231 1.604a3.75 3.75 0 0 1-.623 1.165 3.488 3.488 0 0 1-.935.808 5.72 5.72 0 0 1-1.188.531c.569.216 1.007.539 1.315.969.308.431.592 1.008.854 1.731l1.361 3.785H9.966l-1.2-3.28a9.837 9.837 0 0 0-.438-1.012 3.31 3.31 0 0 0-.554-.791 2.22 2.22 0 0 0-.785-.523c-.308-.124-.677-.186-1.107-.186H4.739c-.392 0-.796-.049-1.211-.148v5.94H1.104V20.152h4.962zm-2.539 7.569c.446.077.873.131 1.281.162.407.031.796.046 1.166.046 1.292 0 2.2-.246 2.723-.739.523-.492.785-1.253.785-2.284 0-.584-.065-1.065-.196-1.442s-.334-.677-.611-.9-.631-.377-1.062-.461-.946-.127-1.546-.127h-2.54v5.745zm13.177-7.569v10.006c0 1.059.289 1.914.865 2.564.577.65 1.527.976 2.85.976.708 0 1.354-.045 1.938-.134a14.63 14.63 0 0 0 1.477-.291V20.152h2.423v14.423c-.677.2-1.497.408-2.458.623-.961.215-2.111.323-3.45.323-1.107 0-2.046-.128-2.815-.386-.77-.258-1.396-.625-1.88-1.103a4.163 4.163 0 0 1-1.05-1.716c-.215-.667-.323-1.41-.323-2.229v-9.935h2.423zm21.045 2.123c-.231-.046-.5-.092-.808-.139a28.465 28.465 0 0 0-.958-.126 8.474 8.474 0 0 0-.992-.058h-.888c-.461 0-.885.019-1.27.056-.384.038-.715.116-.992.235s-.492.287-.646.503-.231.496-.231.838c0 .402.188.79.565 1.162.377.373.85.746 1.419 1.118.569.373 1.185.764 1.846 1.173.661.41 1.276.854 1.846 1.33a7.258 7.258 0 0 1 1.419 1.576c.377.574.565 1.211.565 1.912 0 .67-.127 1.24-.381 1.709-.254.47-.611.85-1.073 1.14-.461.291-1.019.5-1.673.626-.654.127-1.373.19-2.158.19-.969 0-1.865-.088-2.688-.265a23.775 23.775 0 0 1-2.111-.542l.3-1.764c.585.162 1.258.326 2.02.495.761.169 1.581.253 2.458.253.815 0 1.488-.119 2.019-.358.531-.238.796-.686.796-1.341 0-.462-.189-.901-.565-1.318a8.371 8.371 0 0 0-1.431-1.229c-.577-.402-1.196-.812-1.858-1.229s-1.281-.857-1.857-1.319a7.65 7.65 0 0 1-1.431-1.475 2.906 2.906 0 0 1-.565-1.744c0-.67.15-1.233.45-1.688.3-.455.704-.82 1.212-1.096.507-.275 1.107-.473 1.8-.592a13.075 13.075 0 0 1 2.215-.179h1.062c.37 0 .727.017 1.073.051a13.488 13.488 0 0 1 1.719.283l-.208 1.812zm11.584 0c-.231-.046-.5-.092-.808-.139a28.465 28.465 0 0 0-.958-.126 8.474 8.474 0 0 0-.992-.058h-.888c-.461 0-.885.019-1.27.056-.384.038-.715.116-.992.235s-.492.287-.646.503-.231.496-.231.838c0 .402.188.79.565 1.162.377.373.85.746 1.419 1.118.569.373 1.185.764 1.846 1.173.661.41 1.276.854 1.846 1.33a7.258 7.258 0 0 1 1.419 1.576c.377.574.565 1.211.565 1.912 0 .67-.127 1.24-.381 1.709-.254.47-.611.85-1.073 1.14-.461.291-1.019.5-1.673.626-.654.127-1.373.19-2.158.19-.969 0-1.865-.088-2.688-.265a23.775 23.775 0 0 1-2.111-.542l.3-1.764c.585.162 1.258.326 2.02.495.761.169 1.581.253 2.458.253.815 0 1.488-.119 2.019-.358.531-.238.796-.686.796-1.341 0-.462-.189-.901-.565-1.318a8.371 8.371 0 0 0-1.431-1.229c-.577-.402-1.196-.812-1.858-1.229s-1.281-.857-1.857-1.319a7.65 7.65 0 0 1-1.431-1.475 2.906 2.906 0 0 1-.565-1.744c0-.67.15-1.233.45-1.688.3-.455.704-.82 1.212-1.096.507-.275 1.107-.473 1.8-.592a13.075 13.075 0 0 1 2.215-.179h1.062c.37 0 .727.017 1.073.051a13.488 13.488 0 0 1 1.719.283l-.208 1.812zm5.746-2.123v15.346h-2.423V20.152h2.423zm5.377 15.346h-2.377v-9.836c0-.819.096-1.567.289-2.243.192-.675.515-1.26.969-1.753.454-.493 1.053-.873 1.8-1.139.746-.266 1.673-.398 2.781-.398 1.107 0 2.038.133 2.792.398s1.358.646 1.812 1.139.777 1.078.969 1.753a8.19 8.19 0 0 1 .289 2.243v9.836h-2.423v-5.677h-6.9v5.677zm6.899-7.499v-2.454c0-.521-.054-1-.162-1.439a2.772 2.772 0 0 0-.565-1.138 2.683 2.683 0 0 0-1.062-.748c-.438-.178-.989-.268-1.65-.268-.677 0-1.235.09-1.673.268a2.683 2.683 0 0 0-1.062.748c-.27.32-.458.699-.565 1.138a6.008 6.008 0 0 0-.162 1.439v2.454h6.901z"/></symbol></svg>