<?xml version="1.0" encoding="utf-8"?>
<!-- Generator: Adobe Illustrator 16.0.3, SVG Export Plug-In . SVG Version: 6.00 Build 0)  -->
<!DOCTYPE svg PUBLIC "-//W3C//DTD SVG 1.1//EN" "http://www.w3.org/Graphics/SVG/1.1/DTD/svg11.dtd">
<svg version="1.1" id="Слой_1" xmlns="http://www.w3.org/2000/svg" xmlns:xlink="http://www.w3.org/1999/xlink" x="0px" y="0px"
	 width="46.838px" height="43.321px" viewBox="0 0 46.838 43.321" enable-background="new 0 0 46.838 43.321" xml:space="preserve">
<path fill="#FCFCFC" d="M4.013,29.376h39.479V6.521H4.013V29.376z M19.596,11.715l10.39,6.233l-10.39,6.233V11.715z M10.765,32.494
	c-1.062,0-1.968,0.645-2.369,1.559H6.09c-0.573,0-1.039,0.464-1.039,1.038s0.466,1.039,1.039,1.039h2.306
	c0.401,0.914,1.308,1.558,2.369,1.558c1.063,0,1.969-0.644,2.37-1.558h28.277c0.574,0,1.04-0.465,1.04-1.039
	s-0.466-1.038-1.04-1.038H13.135C12.734,33.138,11.829,32.494,10.765,32.494"/>
</svg>
