<?xml version="1.0" encoding="utf-8"?>
<!-- Generator: Adobe Illustrator 16.0.3, SVG Export Plug-In . SVG Version: 6.00 Build 0)  -->
<!DOCTYPE svg PUBLIC "-//W3C//DTD SVG 1.1//EN" "http://www.w3.org/Graphics/SVG/1.1/DTD/svg11.dtd">
<svg version="1.1" id="Слой_1" xmlns="http://www.w3.org/2000/svg" xmlns:xlink="http://www.w3.org/1999/xlink" x="0px" y="0px"
	 width="46.838px" height="43.321px" viewBox="0 0 46.838 43.321" enable-background="new 0 0 46.838 43.321" xml:space="preserve">
<g>
	<path fill="#FCFCFC" d="M15.633,18.527h-2.621c-0.504,0-0.907,0.402-0.907,0.906v2.621c0,0.504,0.403,0.907,0.907,0.907h2.621
		c0.504,0,0.907-0.403,0.907-0.907v-2.621C16.54,18.929,16.137,18.527,15.633,18.527"/>
	<path fill="#FCFCFC" d="M21.681,30.32H19.06c-0.504,0-0.907,0.402-0.907,0.906v2.621c0,0.504,0.403,0.907,0.907,0.907h2.621
		c0.504,0,0.907-0.403,0.907-0.907v-2.621C22.588,30.722,22.185,30.32,21.681,30.32"/>
	<path fill="#FCFCFC" d="M31.508,8.195h2.016c0.806,0,1.462-0.655,1.462-1.461V2.298c0-0.807-0.656-1.462-1.462-1.462h-2.016
		c-0.807,0-1.461,0.655-1.461,1.462v4.436C30.047,7.54,30.701,8.195,31.508,8.195"/>
	<path fill="#FCFCFC" d="M15.633,24.423h-2.621c-0.504,0-0.907,0.402-0.907,0.906v2.621c0,0.504,0.403,0.907,0.907,0.907h2.621
		c0.504,0,0.907-0.403,0.907-0.907V25.33C16.54,24.876,16.137,24.423,15.633,24.423"/>
	<path fill="#FCFCFC" d="M21.681,24.473H19.06c-0.504,0-0.907,0.403-0.907,0.907v2.621c0,0.504,0.403,0.907,0.907,0.907h2.621
		c0.504,0,0.907-0.403,0.907-0.907V25.38C22.588,24.876,22.185,24.473,21.681,24.473"/>
	<path fill="#FCFCFC" d="M13.314,8.195h2.016c0.806,0,1.462-0.655,1.462-1.461V2.298c0-0.807-0.656-1.462-1.462-1.462h-2.016
		c-0.806,0-1.461,0.655-1.461,1.462v4.436C11.854,7.54,12.508,8.195,13.314,8.195"/>
	<path fill="#FCFCFC" d="M33.827,24.423h-2.621c-0.504,0-0.907,0.402-0.907,0.906v2.621c0,0.504,0.403,0.907,0.907,0.907h2.621
		c0.454,0.05,0.907-0.403,0.907-0.907V25.33C34.733,24.826,34.331,24.423,33.827,24.423"/>
	<path fill="#FCFCFC" d="M21.681,18.577H19.06c-0.504,0-0.907,0.403-0.907,0.907v2.621c0,0.504,0.403,0.907,0.907,0.907h2.621
		c0.504,0,0.907-0.403,0.907-0.907v-2.621C22.588,18.98,22.185,18.577,21.681,18.577"/>
	<path fill="#FCFCFC" d="M27.729,18.577h-2.621c-0.504,0-0.907,0.403-0.907,0.907v2.621c0,0.504,0.403,0.907,0.907,0.907h2.621
		c0.504,0,0.907-0.403,0.907-0.907v-2.621C28.636,18.98,28.232,18.577,27.729,18.577"/>
	<path fill="#FCFCFC" d="M41.235,4.869H36.85v1.915c0,1.814-1.462,3.275-3.276,3.275h-2.016c-1.814,0-3.276-1.461-3.276-3.275V4.818
		h-9.676v1.915c0,1.814-1.462,3.276-3.276,3.276h-2.016c-1.814,0-3.276-1.462-3.276-3.276V4.818H5.603
		c-1.763,0-3.175,1.411-3.175,3.176v30.793c0,1.813,1.412,3.225,3.175,3.225h18.358h6.237h11.037c1.764,0,3.175-1.411,3.175-3.225
		V27.246v-5.316V8.043C44.41,6.281,42.999,4.869,41.235,4.869 M40.781,26.842v11.541H29.643h-4.207H6.057v-23.99h34.724v7.536
		V26.842z"/>
	<path fill="#FCFCFC" d="M27.729,24.473h-2.621c-0.504,0-0.907,0.403-0.907,0.907v2.621c0,0.504,0.403,0.907,0.907,0.907h2.621
		c0.504,0,0.907-0.403,0.907-0.907V25.38C28.636,24.876,28.232,24.473,27.729,24.473"/>
	<path fill="#FCFCFC" d="M27.729,30.32h-2.621c-0.504,0-0.907,0.402-0.907,0.906v2.621c0,0.504,0.403,0.907,0.907,0.907h2.621
		c0.504,0,0.907-0.403,0.907-0.907v-2.621C28.636,30.722,28.232,30.32,27.729,30.32"/>
</g>
</svg>
