<?xml version="1.0" encoding="utf-8"?>
<!-- Generator: Adobe Illustrator 16.0.3, SVG Export Plug-In . SVG Version: 6.00 Build 0)  -->
<!DOCTYPE svg PUBLIC "-//W3C//DTD SVG 1.1//EN" "http://www.w3.org/Graphics/SVG/1.1/DTD/svg11.dtd">
<svg version="1.1" id="Слой_1" xmlns="http://www.w3.org/2000/svg" xmlns:xlink="http://www.w3.org/1999/xlink" x="0px" y="0px"
	 width="46.838px" height="43.321px" viewBox="0 0 46.838 43.321" enable-background="new 0 0 46.838 43.321" xml:space="preserve">
<path fill="#FCFCFC" d="M0,3.709v22.875c0,2.995,2.451,5.446,5.446,5.446h11.697l0.865-2.122l0.207-0.51l0.389-0.389l8.798-8.798
	l-3.11-3.001l8.175-8.471c0.5-0.522,1.101-0.924,1.738-1.188c0.638-0.264,1.311-0.394,1.982-0.394c0.648,0,1.298,0.121,1.916,0.368
	c0.604,0.239,1.176,0.605,1.665,1.076c0.849-0.352,1.766-0.536,2.713-0.536V3.709H0z M15.794,18.687H5.991v-2.723h9.803V18.687z
	 M23.963,12.151H5.99V9.428h17.973V12.151z"/>
<path fill="#FCFCFC" d="M45.561,12.065c-0.851-0.851-1.965-1.275-3.081-1.275c-1.112,0-2.224,0.424-3.074,1.269l-1.511-1.479
	c-0.478-0.469-1.109-0.702-1.723-0.701c-0.622-0.001-1.26,0.238-1.741,0.721L27.86,17.17l1.925,1.924l6.389-6.389l1.306,1.28
	l-16.951,16.95l-4.236,10.397l10.447-4.285l18.814-18.813l0.007-0.008C47.263,16.525,47.263,13.767,45.561,12.065 M43.66,16.275
	l-0.032,0.033l-2.689,2.689l-2.31-2.312l2.696-2.695c0.308-0.309,0.718-0.479,1.154-0.479c0.437,0,0.848,0.17,1.156,0.479
	C44.264,14.62,44.272,15.637,43.66,16.275"/>
</svg>
