<?xml version="1.0" encoding="utf-8"?>
<!-- Generator: Adobe Illustrator 16.0.3, SVG Export Plug-In . SVG Version: 6.00 Build 0)  -->
<!DOCTYPE svg PUBLIC "-//W3C//DTD SVG 1.1//EN" "http://www.w3.org/Graphics/SVG/1.1/DTD/svg11.dtd">
<svg version="1.1" id="Слой_1" xmlns="http://www.w3.org/2000/svg" xmlns:xlink="http://www.w3.org/1999/xlink" x="0px" y="0px"
	 width="218.585px" height="35.539px" viewBox="0 0 218.585 35.539" enable-background="new 0 0 218.585 35.539"
	 xml:space="preserve">
<g>
	<g>
		<path fill="#FCFCFC" d="M9.515,0.018v2.221L5.96,5.544C6.525,5.612,7.045,5.727,7.521,5.89C7.996,6.053,8.402,6.28,8.74,6.571
			c0.337,0.292,0.603,0.657,0.795,1.098c0.193,0.441,0.29,0.973,0.29,1.596c0,0.8-0.131,1.485-0.393,2.054
			c-0.262,0.569-0.63,1.044-1.106,1.423c-0.475,0.379-1.054,0.658-1.736,0.833c-0.682,0.177-1.443,0.265-2.284,0.265
			c-0.896,0-1.691-0.052-2.387-0.156c-0.696-0.104-1.333-0.245-1.912-0.425l0.29-2.473c0.579,0.147,1.174,0.275,1.788,0.382
			c0.613,0.107,1.243,0.161,1.891,0.161c0.662,0,1.202-0.138,1.623-0.414c0.42-0.276,0.63-0.784,0.63-1.524
			c0-0.646-0.2-1.1-0.6-1.363c-0.4-0.262-0.964-0.394-1.694-0.394H2.22V5.645l3.224-3.177H0.484V0.018H9.515z"/>
		<path fill="#FCFCFC" d="M17.637,0.018c1.005,0,1.905,0.129,2.697,0.388c0.792,0.258,1.46,0.652,2.005,1.182
			c0.544,0.53,0.961,1.21,1.25,2.039c0.29,0.829,0.434,1.814,0.434,2.956c0,1.02-0.1,1.971-0.299,2.854
			c-0.2,0.883-0.562,1.651-1.085,2.304c-0.524,0.652-1.25,1.166-2.181,1.539c-0.93,0.374-2.125,0.561-3.585,0.561
			c-0.661,0-1.371-0.042-2.128-0.125c-0.758-0.083-1.584-0.214-2.48-0.394V0.018H17.637z M15.818,11.249
			c0.22,0.027,0.423,0.047,0.609,0.06c0.186,0.014,0.375,0.02,0.568,0.02c0.675,0,1.229-0.101,1.664-0.303
			c0.434-0.202,0.778-0.501,1.033-0.898c0.255-0.396,0.431-0.884,0.527-1.463c0.096-0.579,0.145-1.251,0.145-2.019
			c0-0.781-0.059-1.437-0.176-1.968c-0.117-0.531-0.293-0.962-0.527-1.292c-0.234-0.33-0.52-0.565-0.858-0.707
			c-0.337-0.141-0.727-0.212-1.167-0.212h-1.818V11.249z"/>
	</g>
	<g>
		<path fill="#FCFCFC" d="M35.378,0.054v1.68h-6.251v4.38h5.635v1.68h-5.635v3.062c0,0.624,0.173,1.056,0.521,1.297
			c0.347,0.241,0.818,0.362,1.414,0.362h4.593v1.68h-4.678c-1.276,0-2.275-0.266-2.999-0.797c-0.723-0.532-1.084-1.386-1.084-2.563
			V0.054H35.378z"/>
		<path fill="#FCFCFC" d="M37.08,0.054h2.573l3.424,5.252l3.572-5.252h2.382l-4.785,6.911l4.848,7.23h-2.615l-3.615-5.529
			l-3.7,5.529h-2.36l4.891-7.166L37.08,0.054z"/>
		<path fill="#FCFCFC" d="M55.771,0.054c0.893,0,1.676,0.074,2.35,0.223c0.673,0.149,1.237,0.401,1.69,0.755
			c0.454,0.354,0.794,0.815,1.021,1.382s0.34,1.276,0.34,2.126c0,0.836-0.121,1.549-0.361,2.137
			c-0.241,0.588-0.592,1.063-1.053,1.425c-0.461,0.361-1.014,0.624-1.659,0.787c-0.645,0.164-1.372,0.245-2.179,0.245
			c-0.752,0-1.581-0.078-2.488-0.234v5.295h-2.232V0.054H55.771z M53.432,7.241c0.794,0.142,1.545,0.213,2.254,0.213
			c1.191,0,2.027-0.241,2.509-0.723c0.482-0.481,0.723-1.212,0.723-2.19c0-0.539-0.061-0.989-0.181-1.351
			c-0.121-0.361-0.309-0.648-0.563-0.861c-0.255-0.213-0.582-0.365-0.979-0.458c-0.397-0.092-0.872-0.138-1.424-0.138h-2.339V7.241z
			"/>
		<path fill="#FCFCFC" d="M72.633,0.054v1.68h-6.251v4.38h5.635v1.68h-5.635v3.062c0,0.624,0.173,1.056,0.521,1.297
			c0.347,0.241,0.818,0.362,1.414,0.362h4.593v1.68h-4.678c-1.276,0-2.275-0.266-2.999-0.797c-0.723-0.532-1.084-1.386-1.084-2.563
			V0.054H72.633z"/>
		<path fill="#FCFCFC" d="M80.671,0.054c0.893,0,1.676,0.071,2.35,0.212c0.673,0.142,1.237,0.383,1.69,0.723s0.794,0.791,1.021,1.35
			c0.227,0.56,0.34,1.258,0.34,2.094c0,0.567-0.071,1.06-0.212,1.478c-0.142,0.418-0.333,0.776-0.574,1.073
			c-0.241,0.298-0.528,0.546-0.861,0.745s-0.698,0.361-1.095,0.489c0.524,0.199,0.929,0.497,1.212,0.893
			c0.283,0.397,0.545,0.929,0.787,1.595l1.254,3.488h-2.318l-1.105-3.022c-0.127-0.343-0.263-0.654-0.404-0.933
			c-0.142-0.279-0.312-0.521-0.51-0.729c-0.199-0.207-0.439-0.368-0.723-0.482c-0.284-0.114-0.624-0.171-1.021-0.171
			c-0.34,0-0.691,0-1.052,0c-0.362,0-0.734-0.045-1.117-0.136v5.474h-2.232V0.054H80.671z M78.332,7.029
			c0.411,0.071,0.805,0.121,1.18,0.149s0.734,0.042,1.074,0.042c1.191,0,2.027-0.227,2.509-0.681
			c0.482-0.454,0.723-1.155,0.723-2.105c0-0.539-0.061-0.981-0.181-1.329c-0.121-0.347-0.309-0.624-0.563-0.829
			c-0.255-0.206-0.582-0.347-0.979-0.425s-0.872-0.117-1.424-0.117h-2.339V7.029z"/>
		<path fill="#FCFCFC" d="M91.707,0.054v14.141h-2.232V0.054H91.707z"/>
		<path fill="#FCFCFC" d="M104.146,0.054v1.68h-6.251v4.38h5.635v1.68h-5.635v3.062c0,0.624,0.173,1.056,0.521,1.297
			c0.347,0.241,0.818,0.362,1.414,0.362h4.593v1.68h-4.678c-1.276,0-2.275-0.266-2.999-0.797c-0.723-0.532-1.084-1.386-1.084-2.563
			V0.054H104.146z"/>
		<path fill="#FCFCFC" d="M109.398,0.054l7.719,8.271V0.054h2.169v14.141h-2.169v-3.189l-7.357-7.783v10.972h-2.147V0.054H109.398z"
			/>
		<path fill="#FCFCFC" d="M132.13,2.095c-0.497-0.113-1.053-0.205-1.669-0.276c-0.617-0.071-1.194-0.106-1.733-0.106
			c-0.667,0-1.244,0.085-1.733,0.256c-0.489,0.171-0.897,0.461-1.223,0.871c-0.327,0.41-0.571,0.96-0.734,1.65
			c-0.163,0.69-0.245,1.555-0.245,2.593c0,1.08,0.085,1.971,0.255,2.675c0.17,0.704,0.421,1.26,0.755,1.67
			c0.333,0.41,0.751,0.697,1.254,0.861c0.503,0.164,1.088,0.246,1.754,0.246c0.539,0,1.116-0.044,1.733-0.131
			c0.617-0.088,1.194-0.186,1.733-0.294l0.17,1.66c-0.567,0.156-1.177,0.269-1.829,0.34c-0.652,0.071-1.276,0.106-1.872,0.106
			c-0.978,0-1.857-0.117-2.637-0.352s-1.442-0.627-1.988-1.179c-0.546-0.551-0.96-1.282-1.244-2.191
			c-0.284-0.91-0.425-2.04-0.425-3.391c0-1.351,0.142-2.481,0.425-3.391c0.283-0.91,0.698-1.637,1.244-2.181
			c0.546-0.544,1.216-0.93,2.01-1.158c0.793-0.227,1.694-0.341,2.701-0.341c0.609,0,1.226,0.036,1.85,0.106
			c0.624,0.071,1.191,0.156,1.701,0.255L132.13,2.095z"/>
		<path fill="#FCFCFC" d="M143.74,0.054v1.68h-6.251v4.38h5.635v1.68h-5.635v3.062c0,0.624,0.173,1.056,0.521,1.297
			c0.347,0.241,0.818,0.362,1.414,0.362h4.593v1.68h-4.678c-1.276,0-2.275-0.266-2.999-0.797c-0.723-0.532-1.084-1.386-1.084-2.563
			V0.054H143.74z"/>
	</g>
	<g>
		<path fill="#FCFCFC" d="M158.946,0.094v2.513h-5.899v3.705h5.132v2.513h-5.132v5.43h-3.663V0.094H158.946z"/>
		<path fill="#FCFCFC" d="M172.873,7.196c0,2.443-0.54,4.234-1.619,5.373c-1.079,1.14-2.712,1.709-4.898,1.709
			c-2.201,0-3.837-0.569-4.909-1.709c-1.072-1.139-1.607-2.93-1.607-5.373c0-2.47,0.536-4.275,1.607-5.414s2.708-1.708,4.909-1.708
			s3.836,0.569,4.909,1.708C172.337,2.921,172.873,4.726,172.873,7.196z M169.04,7.175c0-0.849-0.053-1.563-0.16-2.141
			c-0.106-0.579-0.273-1.047-0.5-1.404s-0.508-0.609-0.841-0.758c-0.334-0.148-0.721-0.222-1.161-0.222
			c-0.455,0-0.852,0.074-1.193,0.222c-0.34,0.148-0.625,0.401-0.852,0.758c-0.228,0.357-0.394,0.825-0.5,1.404
			c-0.106,0.579-0.16,1.292-0.16,2.141c0,0.848,0.053,1.563,0.16,2.142c0.106,0.579,0.273,1.047,0.5,1.404
			c0.227,0.357,0.511,0.609,0.852,0.757c0.341,0.148,0.738,0.222,1.193,0.222c0.44,0,0.827-0.074,1.161-0.222
			c0.333-0.148,0.614-0.4,0.841-0.757s0.394-0.825,0.5-1.404C168.986,8.738,169.04,8.023,169.04,7.175z"/>
		<path fill="#FCFCFC" d="M179.772,0.094c0.965,0,1.81,0.075,2.534,0.224s1.328,0.404,1.81,0.766s0.845,0.836,1.086,1.425
			c0.241,0.588,0.362,1.315,0.362,2.18c0,0.539-0.071,0.996-0.213,1.372c-0.142,0.376-0.33,0.695-0.564,0.958
			s-0.493,0.475-0.777,0.638s-0.568,0.302-0.852,0.415c0.539,0.214,0.99,0.509,1.352,0.886c0.362,0.377,0.649,0.942,0.862,1.695
			l1.044,3.605h-3.812l-0.81-2.802c-0.099-0.356-0.206-0.67-0.319-0.941s-0.255-0.492-0.426-0.663s-0.38-0.299-0.628-0.385
			c-0.249-0.085-0.55-0.128-0.905-0.128c-0.156,0-0.323,0-0.5,0c-0.178,0-0.33-0.01-0.458-0.032v4.951h-3.663V0.094H179.772z
			 M178.559,6.75c0.199,0.035,0.401,0.052,0.607,0.052c0.206,0,0.394,0,0.564,0c0.781,0,1.345-0.159,1.693-0.476
			c0.348-0.318,0.522-0.865,0.522-1.643c0-0.424-0.042-0.773-0.128-1.048c-0.085-0.276-0.22-0.488-0.405-0.636
			c-0.185-0.148-0.412-0.25-0.681-0.307c-0.27-0.056-0.589-0.084-0.958-0.084h-1.214V6.75z"/>
		<path fill="#FCFCFC" d="M191.229,0.094v9.501c0,0.764,0.213,1.306,0.639,1.625c0.426,0.319,1.015,0.479,1.767,0.479
			c0.44,0,0.855-0.024,1.246-0.072c0.39-0.048,0.699-0.1,0.926-0.155V0.094h3.663v13.289c-0.667,0.17-1.512,0.362-2.534,0.575
			c-1.022,0.213-2.165,0.319-3.428,0.319c-1.107,0-2.041-0.108-2.8-0.324c-0.76-0.216-1.374-0.53-1.842-0.941
			c-0.468-0.411-0.806-0.92-1.012-1.527c-0.206-0.606-0.309-1.3-0.309-2.081V0.094H191.229z"/>
		<path fill="#FCFCFC" d="M209.181,9.997l-3.173-4.749v9.008h-3.663V0.094h3.642l4.493,6.645l4.472-6.645h3.642v14.162h-3.663V5.248
			l-3.173,4.749H209.181z"/>
	</g>
	<g>
		<path fill="#FCFCFC" d="M6.066,20.152c0.969,0,1.819,0.077,2.55,0.231c0.73,0.154,1.342,0.415,1.834,0.785
			c0.492,0.369,0.861,0.857,1.108,1.465c0.246,0.607,0.369,1.365,0.369,2.272c0,0.615-0.077,1.15-0.231,1.604
			c-0.154,0.454-0.362,0.842-0.623,1.165c-0.262,0.323-0.573,0.593-0.935,0.808c-0.362,0.216-0.758,0.393-1.188,0.531
			c0.569,0.216,1.007,0.539,1.315,0.969c0.308,0.431,0.592,1.008,0.854,1.731l1.361,3.785H9.966l-1.2-3.28
			c-0.138-0.372-0.285-0.709-0.438-1.012c-0.154-0.302-0.338-0.565-0.554-0.791c-0.216-0.225-0.477-0.399-0.785-0.523
			c-0.308-0.124-0.677-0.186-1.107-0.186c-0.37,0-0.75,0-1.143,0c-0.392,0-0.796-0.049-1.211-0.148v5.94H1.104V20.152H6.066z
			 M3.527,27.721c0.446,0.077,0.873,0.131,1.281,0.162c0.407,0.031,0.796,0.046,1.166,0.046c1.292,0,2.2-0.246,2.723-0.739
			c0.523-0.492,0.785-1.253,0.785-2.284c0-0.584-0.065-1.065-0.196-1.442s-0.334-0.677-0.611-0.9s-0.631-0.377-1.062-0.461
			s-0.946-0.127-1.546-0.127H3.527V27.721z"/>
		<path fill="#FCFCFC" d="M16.704,20.152v10.006c0,1.059,0.289,1.914,0.865,2.564c0.577,0.65,1.527,0.976,2.85,0.976
			c0.708,0,1.354-0.045,1.938-0.134c0.584-0.089,1.077-0.186,1.477-0.291V20.152h2.423v14.423c-0.677,0.2-1.497,0.408-2.458,0.623
			c-0.961,0.215-2.111,0.323-3.45,0.323c-1.107,0-2.046-0.128-2.815-0.386c-0.77-0.258-1.396-0.625-1.88-1.103
			c-0.485-0.478-0.835-1.049-1.05-1.716c-0.215-0.667-0.323-1.41-0.323-2.229v-9.935H16.704z"/>
		<path fill="#FCFCFC" d="M37.749,22.275c-0.231-0.046-0.5-0.092-0.808-0.139c-0.308-0.046-0.627-0.088-0.958-0.126
			c-0.331-0.039-0.662-0.058-0.992-0.058c-0.331,0-0.627,0-0.888,0c-0.461,0-0.885,0.019-1.27,0.056
			c-0.384,0.038-0.715,0.116-0.992,0.235s-0.492,0.287-0.646,0.503s-0.231,0.496-0.231,0.838c0,0.402,0.188,0.79,0.565,1.162
			c0.377,0.373,0.85,0.746,1.419,1.118c0.569,0.373,1.185,0.764,1.846,1.173c0.661,0.41,1.276,0.854,1.846,1.33
			c0.569,0.477,1.042,1.002,1.419,1.576c0.377,0.574,0.565,1.211,0.565,1.912c0,0.67-0.127,1.24-0.381,1.709
			c-0.254,0.47-0.611,0.85-1.073,1.14c-0.461,0.291-1.019,0.5-1.673,0.626c-0.654,0.127-1.373,0.19-2.158,0.19
			c-0.969,0-1.865-0.088-2.688-0.265c-0.823-0.177-1.527-0.358-2.111-0.542l0.3-1.764c0.585,0.162,1.258,0.326,2.02,0.495
			c0.761,0.169,1.581,0.253,2.458,0.253c0.815,0,1.488-0.119,2.019-0.358c0.531-0.238,0.796-0.686,0.796-1.341
			c0-0.462-0.189-0.901-0.565-1.318c-0.377-0.417-0.854-0.827-1.431-1.229c-0.577-0.402-1.196-0.812-1.858-1.229
			s-1.281-0.857-1.857-1.319c-0.577-0.462-1.054-0.954-1.431-1.475c-0.377-0.521-0.565-1.103-0.565-1.744
			c0-0.67,0.15-1.233,0.45-1.688c0.3-0.455,0.704-0.82,1.212-1.096c0.507-0.275,1.107-0.473,1.8-0.592
			c0.692-0.119,1.431-0.179,2.215-0.179c0.338,0,0.692,0,1.062,0s0.727,0.017,1.073,0.051c0.346,0.035,0.666,0.078,0.958,0.129
			c0.292,0.052,0.546,0.103,0.761,0.154L37.749,22.275z"/>
		<path fill="#FCFCFC" d="M49.333,22.275c-0.231-0.046-0.5-0.092-0.808-0.139c-0.308-0.046-0.627-0.088-0.958-0.126
			c-0.331-0.039-0.662-0.058-0.992-0.058c-0.331,0-0.627,0-0.888,0c-0.461,0-0.885,0.019-1.27,0.056
			c-0.384,0.038-0.715,0.116-0.992,0.235s-0.492,0.287-0.646,0.503s-0.231,0.496-0.231,0.838c0,0.402,0.188,0.79,0.565,1.162
			c0.377,0.373,0.85,0.746,1.419,1.118c0.569,0.373,1.185,0.764,1.846,1.173c0.661,0.41,1.276,0.854,1.846,1.33
			c0.569,0.477,1.042,1.002,1.419,1.576c0.377,0.574,0.565,1.211,0.565,1.912c0,0.67-0.127,1.24-0.381,1.709
			c-0.254,0.47-0.611,0.85-1.073,1.14c-0.461,0.291-1.019,0.5-1.673,0.626c-0.654,0.127-1.373,0.19-2.158,0.19
			c-0.969,0-1.865-0.088-2.688-0.265c-0.823-0.177-1.527-0.358-2.111-0.542l0.3-1.764c0.585,0.162,1.258,0.326,2.02,0.495
			c0.761,0.169,1.581,0.253,2.458,0.253c0.815,0,1.488-0.119,2.019-0.358c0.531-0.238,0.796-0.686,0.796-1.341
			c0-0.462-0.189-0.901-0.565-1.318c-0.377-0.417-0.854-0.827-1.431-1.229c-0.577-0.402-1.196-0.812-1.858-1.229
			s-1.281-0.857-1.857-1.319c-0.577-0.462-1.054-0.954-1.431-1.475c-0.377-0.521-0.565-1.103-0.565-1.744
			c0-0.67,0.15-1.233,0.45-1.688c0.3-0.455,0.704-0.82,1.212-1.096c0.507-0.275,1.107-0.473,1.8-0.592
			c0.692-0.119,1.431-0.179,2.215-0.179c0.338,0,0.692,0,1.062,0s0.727,0.017,1.073,0.051c0.346,0.035,0.666,0.078,0.958,0.129
			c0.292,0.052,0.546,0.103,0.761,0.154L49.333,22.275z"/>
		<path fill="#FCFCFC" d="M55.079,20.152v15.346h-2.423V20.152H55.079z"/>
		<path fill="#FCFCFC" d="M60.456,35.498h-2.377v-9.836c0-0.819,0.096-1.567,0.289-2.243c0.192-0.675,0.515-1.26,0.969-1.753
			c0.454-0.493,1.053-0.873,1.8-1.139c0.746-0.266,1.673-0.398,2.781-0.398c1.107,0,2.038,0.133,2.792,0.398
			s1.358,0.646,1.812,1.139s0.777,1.078,0.969,1.753c0.192,0.676,0.289,1.423,0.289,2.243v9.836h-2.423v-5.677h-6.9V35.498z
			 M67.355,27.999v-2.454c0-0.521-0.054-1-0.162-1.439c-0.108-0.438-0.296-0.818-0.565-1.138c-0.27-0.32-0.623-0.569-1.062-0.748
			c-0.438-0.178-0.989-0.268-1.65-0.268c-0.677,0-1.235,0.09-1.673,0.268c-0.438,0.179-0.793,0.428-1.062,0.748
			c-0.27,0.32-0.458,0.699-0.565,1.138c-0.108,0.438-0.162,0.918-0.162,1.439v2.454H67.355z"/>
	</g>
</g>
</svg>
